<?xml version="1.0" encoding="UTF-8"?>
<svg id="Layer_1" data-name="Layer 1" xmlns="http://www.w3.org/2000/svg" viewBox="0 0 185.73 149.59">
  <defs>
    <style>
      .cls-1, .cls-2 {
        stroke-width: 0px;
      }

      .cls-2 {
        fill: #fff;
      }
    </style>
  </defs>
  <path class="cls-2" d="M95.34,4.39c14.64,0,34.64,8.78,36.59,9.76,1.95.98,7.32-2.44,20.98-9.27,13.66-6.83,20.13-6.21,26.48.13,6.34,6.34-1.6,28.16-5.99,38.9,3.41,5.85,13.66,24.88,12.2,47.32s-10.24,43.42-53.17,53.17c-16.32,3.71-33.13,5.19-39.55,5.19-6.42,0-23.23-1.48-39.55-5.19C10.39,134.64,1.61,113.67.14,91.23c-1.46-22.44,8.78-41.47,12.2-47.32C7.95,33.17.01,11.35,6.35,5.01s12.82-6.96,26.48-.13c13.66,6.83,19.03,10.24,20.98,9.27,1.95-.98,21.95-9.76,36.59-9.76h4.94Z"/>
  <path class="cls-1" d="M93.34,94.34l6.49-6.51c.24-.24.07-.65-.27-.65l-6.49,1.11-6.49-1.11c-.34,0-.51.41-.27.65l6.49,6.51c.15.15.39.15.54,0Z"/>
  <path class="cls-1" d="M43.21,59.99c7.32-5.85,18.54-5.61,25.37,5.61,6.83,11.22-11.22,12.2-18.05,8.78-6.83-3.41-12.81-10-7.32-14.39Z"/>
  <path class="cls-1" d="M142.52,59.99c-7.32-5.85-18.54-5.61-25.37,5.61s11.22,12.2,18.05,8.78c6.83-3.41,12.81-10,7.32-14.39Z"/>
  <path class="cls-1" d="M93.09,29.47c-.36,0-.73.01-1.1.02-7.81.24-13.17,9.76-17.07,10.98,5.85,2.68,5.37,8.05,11.71,10.49,2.03.78,4.28,1.11,6.46,1.1,2.19,0,4.44-.32,6.46-1.1,6.34-2.44,5.85-7.81,11.71-10.49-3.9-1.22-9.27-10.73-17.07-10.98-.37-.01-.74-.02-1.1-.02Z"/>
  <path class="cls-1" d="M92.91,93.36c.83,3.21-.51,6.72-2.89,8.94-2.38,2.27-5.72,3.4-8.89,3.69-2.11.19-4.22.07-6.27-.4,3.95-.8,7.94-1.4,11.47-3.24,3.5-1.76,5.96-5.1,6.58-8.99h0Z"/>
  <path class="cls-1" d="M93.23,93.36c.47,3.95,2.96,7.39,6.49,9.17,3.55,1.85,7.59,2.41,11.56,3.07-2.05.38-4.15.45-6.24.24-4.2-.41-8.71-2.37-10.81-6.26-1.02-1.88-1.46-4.13-1-6.21h0Z"/>
</svg>